<?xml version="1.0" encoding="UTF-8" standalone="no"?>
<!DOCTYPE svg PUBLIC "-//W3C//DTD SVG 1.1//EN"
 "http://www.w3.org/Graphics/SVG/1.1/DTD/svg11.dtd">
<!-- Generated by graphviz version 2.40.1 (20161225.0304)
 -->
<!-- Title: %0 Pages: 1 -->
<svg width="350pt" height="260pt"
 viewBox="0.00 0.00 350.00 260.00" xmlns="http://www.w3.org/2000/svg" xmlns:xlink="http://www.w3.org/1999/xlink">
<g id="graph0" class="graph" transform="scale(1 1) rotate(0) translate(4 256)">
<title>%0</title>
<polygon fill="#ffffff" stroke="transparent" points="-4,4 -4,-256 346,-256 346,4 -4,4"/>
<!-- nodo0 -->
<g id="node1" class="node">
<title>nodo0</title>
<ellipse fill="none" stroke="#000000" cx="135" cy="-234" rx="27" ry="18"/>
<text text-anchor="middle" x="135" y="-229.8" font-family="Times,serif" font-size="14.00" fill="#000000">||</text>
</g>
<!-- nodo1 -->
<g id="node2" class="node">
<title>nodo1</title>
<ellipse fill="none" stroke="#000000" cx="99" cy="-162" rx="27" ry="18"/>
<text text-anchor="middle" x="99" y="-157.8" font-family="Times,serif" font-size="14.00" fill="#000000">==</text>
</g>
<!-- nodo0&#45;&gt;nodo1 -->
<g id="edge1" class="edge">
<title>nodo0&#45;&gt;nodo1</title>
<path fill="none" stroke="#000000" d="M126.2854,-216.5708C122.0403,-208.0807 116.8464,-197.6929 112.1337,-188.2674"/>
<polygon fill="#000000" stroke="#000000" points="115.237,-186.6477 107.6343,-179.2687 108.976,-189.7782 115.237,-186.6477"/>
</g>
<!-- nodo4 -->
<g id="node5" class="node">
<title>nodo4</title>
<ellipse fill="none" stroke="#000000" cx="171" cy="-162" rx="27" ry="18"/>
<text text-anchor="middle" x="171" y="-157.8" font-family="Times,serif" font-size="14.00" fill="#000000">||</text>
</g>
<!-- nodo0&#45;&gt;nodo4 -->
<g id="edge4" class="edge">
<title>nodo0&#45;&gt;nodo4</title>
<path fill="none" stroke="#000000" d="M143.7146,-216.5708C147.9597,-208.0807 153.1536,-197.6929 157.8663,-188.2674"/>
<polygon fill="#000000" stroke="#000000" points="161.024,-189.7782 162.3657,-179.2687 154.763,-186.6477 161.024,-189.7782"/>
</g>
<!-- nodo2 -->
<g id="node3" class="node">
<title>nodo2</title>
<ellipse fill="none" stroke="#000000" cx="27" cy="-90" rx="27" ry="18"/>
<text text-anchor="middle" x="27" y="-85.8" font-family="Times,serif" font-size="14.00" fill="#000000">c</text>
</g>
<!-- nodo1&#45;&gt;nodo2 -->
<g id="edge2" class="edge">
<title>nodo1&#45;&gt;nodo2</title>
<path fill="none" stroke="#000000" d="M83.7307,-146.7307C73.803,-136.803 60.6847,-123.6847 49.5637,-112.5637"/>
<polygon fill="#000000" stroke="#000000" points="51.7933,-109.8436 42.2473,-105.2473 46.8436,-114.7933 51.7933,-109.8436"/>
</g>
<!-- nodo3 -->
<g id="node4" class="node">
<title>nodo3</title>
<ellipse fill="none" stroke="#000000" cx="99" cy="-90" rx="27.2467" ry="18"/>
<text text-anchor="middle" x="99" y="-85.8" font-family="Times,serif" font-size="14.00" fill="#000000"> &#39; &#160;&#39; </text>
</g>
<!-- nodo1&#45;&gt;nodo3 -->
<g id="edge3" class="edge">
<title>nodo1&#45;&gt;nodo3</title>
<path fill="none" stroke="#000000" d="M99,-143.8314C99,-136.131 99,-126.9743 99,-118.4166"/>
<polygon fill="#000000" stroke="#000000" points="102.5001,-118.4132 99,-108.4133 95.5001,-118.4133 102.5001,-118.4132"/>
</g>
<!-- nodo5 -->
<g id="node6" class="node">
<title>nodo5</title>
<ellipse fill="none" stroke="#000000" cx="171" cy="-90" rx="27" ry="18"/>
<text text-anchor="middle" x="171" y="-85.8" font-family="Times,serif" font-size="14.00" fill="#000000">==</text>
</g>
<!-- nodo4&#45;&gt;nodo5 -->
<g id="edge5" class="edge">
<title>nodo4&#45;&gt;nodo5</title>
<path fill="none" stroke="#000000" d="M171,-143.8314C171,-136.131 171,-126.9743 171,-118.4166"/>
<polygon fill="#000000" stroke="#000000" points="174.5001,-118.4132 171,-108.4133 167.5001,-118.4133 174.5001,-118.4132"/>
</g>
<!-- nodo8 -->
<g id="node9" class="node">
<title>nodo8</title>
<ellipse fill="none" stroke="#000000" cx="243" cy="-90" rx="27" ry="18"/>
<text text-anchor="middle" x="243" y="-85.8" font-family="Times,serif" font-size="14.00" fill="#000000">==</text>
</g>
<!-- nodo4&#45;&gt;nodo8 -->
<g id="edge8" class="edge">
<title>nodo4&#45;&gt;nodo8</title>
<path fill="none" stroke="#000000" d="M186.2693,-146.7307C196.197,-136.803 209.3153,-123.6847 220.4363,-112.5637"/>
<polygon fill="#000000" stroke="#000000" points="223.1564,-114.7933 227.7527,-105.2473 218.2067,-109.8436 223.1564,-114.7933"/>
</g>
<!-- nodo6 -->
<g id="node7" class="node">
<title>nodo6</title>
<ellipse fill="none" stroke="#000000" cx="99" cy="-18" rx="27" ry="18"/>
<text text-anchor="middle" x="99" y="-13.8" font-family="Times,serif" font-size="14.00" fill="#000000">c</text>
</g>
<!-- nodo5&#45;&gt;nodo6 -->
<g id="edge6" class="edge">
<title>nodo5&#45;&gt;nodo6</title>
<path fill="none" stroke="#000000" d="M155.7307,-74.7307C145.803,-64.803 132.6847,-51.6847 121.5637,-40.5637"/>
<polygon fill="#000000" stroke="#000000" points="123.7933,-37.8436 114.2473,-33.2473 118.8436,-42.7933 123.7933,-37.8436"/>
</g>
<!-- nodo7 -->
<g id="node8" class="node">
<title>nodo7</title>
<ellipse fill="none" stroke="#000000" cx="171" cy="-18" rx="27" ry="18"/>
<text text-anchor="middle" x="171" y="-13.8" font-family="Times,serif" font-size="14.00" fill="#000000">&#39;n&#39;</text>
</g>
<!-- nodo5&#45;&gt;nodo7 -->
<g id="edge7" class="edge">
<title>nodo5&#45;&gt;nodo7</title>
<path fill="none" stroke="#000000" d="M171,-71.8314C171,-64.131 171,-54.9743 171,-46.4166"/>
<polygon fill="#000000" stroke="#000000" points="174.5001,-46.4132 171,-36.4133 167.5001,-46.4133 174.5001,-46.4132"/>
</g>
<!-- nodo9 -->
<g id="node10" class="node">
<title>nodo9</title>
<ellipse fill="none" stroke="#000000" cx="243" cy="-18" rx="27" ry="18"/>
<text text-anchor="middle" x="243" y="-13.8" font-family="Times,serif" font-size="14.00" fill="#000000">c</text>
</g>
<!-- nodo8&#45;&gt;nodo9 -->
<g id="edge9" class="edge">
<title>nodo8&#45;&gt;nodo9</title>
<path fill="none" stroke="#000000" d="M243,-71.8314C243,-64.131 243,-54.9743 243,-46.4166"/>
<polygon fill="#000000" stroke="#000000" points="246.5001,-46.4132 243,-36.4133 239.5001,-46.4133 246.5001,-46.4132"/>
</g>
<!-- nodo10 -->
<g id="node11" class="node">
<title>nodo10</title>
<ellipse fill="none" stroke="#000000" cx="315" cy="-18" rx="27" ry="18"/>
<text text-anchor="middle" x="315" y="-13.8" font-family="Times,serif" font-size="14.00" fill="#000000"> &#39;t&#39; </text>
</g>
<!-- nodo8&#45;&gt;nodo10 -->
<g id="edge10" class="edge">
<title>nodo8&#45;&gt;nodo10</title>
<path fill="none" stroke="#000000" d="M258.2693,-74.7307C268.197,-64.803 281.3153,-51.6847 292.4363,-40.5637"/>
<polygon fill="#000000" stroke="#000000" points="295.1564,-42.7933 299.7527,-33.2473 290.2067,-37.8436 295.1564,-42.7933"/>
</g>
</g>
</svg>
