<?xml version="1.0" encoding="UTF-8" standalone="no"?>
<!DOCTYPE svg PUBLIC "-//W3C//DTD SVG 1.1//EN"
 "http://www.w3.org/Graphics/SVG/1.1/DTD/svg11.dtd">
<!-- Generated by graphviz version 2.40.1 (20161225.0304)
 -->
<!-- Title: %0 Pages: 1 -->
<svg width="206pt" height="260pt"
 viewBox="0.00 0.00 206.00 260.00" xmlns="http://www.w3.org/2000/svg" xmlns:xlink="http://www.w3.org/1999/xlink">
<g id="graph0" class="graph" transform="scale(1 1) rotate(0) translate(4 256)">
<title>%0</title>
<polygon fill="#ffffff" stroke="transparent" points="-4,4 -4,-256 202,-256 202,4 -4,4"/>
<!-- a -->
<g id="node1" class="node">
<title>a</title>
<ellipse fill="none" stroke="#000000" cx="135" cy="-234" rx="27" ry="18"/>
<text text-anchor="middle" x="135" y="-229.8" font-family="Times,serif" font-size="14.00" fill="#000000">=</text>
</g>
<!-- b -->
<g id="node2" class="node">
<title>b</title>
<ellipse fill="none" stroke="#000000" cx="99" cy="-162" rx="27" ry="18"/>
<text text-anchor="middle" x="99" y="-157.8" font-family="Times,serif" font-size="14.00" fill="#000000">=</text>
</g>
<!-- a&#45;&gt;b -->
<g id="edge2" class="edge">
<title>a&#45;&gt;b</title>
<path fill="none" stroke="#000000" d="M126.2854,-216.5708C122.0403,-208.0807 116.8464,-197.6929 112.1337,-188.2674"/>
<polygon fill="#000000" stroke="#000000" points="115.237,-186.6477 107.6343,-179.2687 108.976,-189.7782 115.237,-186.6477"/>
</g>
<!-- nl -->
<g id="node4" class="node">
<title>nl</title>
<ellipse fill="none" stroke="#000000" cx="171" cy="-162" rx="27" ry="18"/>
<text text-anchor="middle" x="171" y="-157.8" font-family="Times,serif" font-size="14.00" fill="#000000">nl</text>
</g>
<!-- a&#45;&gt;nl -->
<g id="edge1" class="edge">
<title>a&#45;&gt;nl</title>
<path fill="none" stroke="#000000" d="M143.7146,-216.5708C147.9597,-208.0807 153.1536,-197.6929 157.8663,-188.2674"/>
<polygon fill="#000000" stroke="#000000" points="161.024,-189.7782 162.3657,-179.2687 154.763,-186.6477 161.024,-189.7782"/>
</g>
<!-- c -->
<g id="node3" class="node">
<title>c</title>
<ellipse fill="none" stroke="#000000" cx="63" cy="-90" rx="27" ry="18"/>
<text text-anchor="middle" x="63" y="-85.8" font-family="Times,serif" font-size="14.00" fill="#000000">=</text>
</g>
<!-- b&#45;&gt;c -->
<g id="edge3" class="edge">
<title>b&#45;&gt;c</title>
<path fill="none" stroke="#000000" d="M90.2854,-144.5708C86.0403,-136.0807 80.8464,-125.6929 76.1337,-116.2674"/>
<polygon fill="#000000" stroke="#000000" points="79.237,-114.6477 71.6343,-107.2687 72.976,-117.7782 79.237,-114.6477"/>
</g>
<!-- nw -->
<g id="node5" class="node">
<title>nw</title>
<ellipse fill="none" stroke="#000000" cx="135" cy="-90" rx="27" ry="18"/>
<text text-anchor="middle" x="135" y="-85.8" font-family="Times,serif" font-size="14.00" fill="#000000">nw</text>
</g>
<!-- b&#45;&gt;nw -->
<g id="edge4" class="edge">
<title>b&#45;&gt;nw</title>
<path fill="none" stroke="#000000" d="M107.7146,-144.5708C111.9597,-136.0807 117.1536,-125.6929 121.8663,-116.2674"/>
<polygon fill="#000000" stroke="#000000" points="125.024,-117.7782 126.3657,-107.2687 118.763,-114.6477 125.024,-117.7782"/>
</g>
<!-- nc -->
<g id="node6" class="node">
<title>nc</title>
<ellipse fill="none" stroke="#000000" cx="27" cy="-18" rx="27" ry="18"/>
<text text-anchor="middle" x="27" y="-13.8" font-family="Times,serif" font-size="14.00" fill="#000000">nc</text>
</g>
<!-- c&#45;&gt;nc -->
<g id="edge5" class="edge">
<title>c&#45;&gt;nc</title>
<path fill="none" stroke="#000000" d="M54.2854,-72.5708C50.0403,-64.0807 44.8464,-53.6929 40.1337,-44.2674"/>
<polygon fill="#000000" stroke="#000000" points="43.237,-42.6477 35.6343,-35.2687 36.976,-45.7782 43.237,-42.6477"/>
</g>
<!-- 0 -->
<g id="node7" class="node">
<title>0</title>
<ellipse fill="none" stroke="#000000" cx="99" cy="-18" rx="27" ry="18"/>
<text text-anchor="middle" x="99" y="-13.8" font-family="Times,serif" font-size="14.00" fill="#000000">0</text>
</g>
<!-- c&#45;&gt;0 -->
<g id="edge6" class="edge">
<title>c&#45;&gt;0</title>
<path fill="none" stroke="#000000" d="M71.7146,-72.5708C75.9597,-64.0807 81.1536,-53.6929 85.8663,-44.2674"/>
<polygon fill="#000000" stroke="#000000" points="89.024,-45.7782 90.3657,-35.2687 82.763,-42.6477 89.024,-45.7782"/>
</g>
</g>
</svg>
